<?xml version="1.0" encoding="UTF-8" standalone="no"?>
<!-- Created with Inkscape (http://www.inkscape.org/) -->

<svg
   xmlns:dc="http://purl.org/dc/elements/1.1/"
   xmlns:cc="http://creativecommons.org/ns#"
   xmlns:rdf="http://www.w3.org/1999/02/22-rdf-syntax-ns#"
   xmlns:svg="http://www.w3.org/2000/svg"
   xmlns="http://www.w3.org/2000/svg"
   xmlns:sodipodi="http://sodipodi.sourceforge.net/DTD/sodipodi-0.dtd"
   xmlns:inkscape="http://www.inkscape.org/namespaces/inkscape"
   width="160"
   height="160"
   id="svg2"
   version="1.1"
   inkscape:version="0.48.4 r9939"
   sodipodi:docname="fest_inaktiv.svg">
  <defs
     id="defs4">
    <linearGradient
       id="linearGradient3794">
      <stop
         style="stop-color:#000000;stop-opacity:1;"
         offset="0"
         id="stop3796" />
      <stop
         style="stop-color:#000000;stop-opacity:0;"
         offset="1"
         id="stop3798" />
    </linearGradient>
  </defs>
  <sodipodi:namedview
     id="base"
     pagecolor="#ffffff"
     bordercolor="#666666"
     borderopacity="1.0"
     inkscape:pageopacity="0.0"
     inkscape:pageshadow="2"
     inkscape:zoom="2.8"
     inkscape:cx="48.337849"
     inkscape:cy="32.458256"
     inkscape:document-units="px"
     inkscape:current-layer="layer1"
     showgrid="false"
     inkscape:window-width="1678"
     inkscape:window-height="1142"
     inkscape:window-x="203"
     inkscape:window-y="0"
     inkscape:window-maximized="0" />
  <metadata
     id="metadata7">
    <rdf:RDF>
      <cc:Work
         rdf:about="">
        <dc:format>image/svg+xml</dc:format>
        <dc:type
           rdf:resource="http://purl.org/dc/dcmitype/StillImage" />
        <dc:title></dc:title>
      </cc:Work>
    </rdf:RDF>
  </metadata>
  <g
     inkscape:label="Ebene 1"
     inkscape:groupmode="layer"
     id="layer1"
     transform="translate(0,-892.36218)">
    <path
       sodipodi:type="arc"
       style="fill:#cccccc;fill-opacity:1;stroke:#999999;stroke-width:1;stroke-miterlimit:4;stroke-opacity:1;stroke-dasharray:none;stroke-dashoffset:0"
       id="path3004"
       sodipodi:cx="14.464286"
       sodipodi:cy="146.07143"
       sodipodi:rx="13.035714"
       sodipodi:ry="12.142858"
       d="m 27.5,146.07143 a 13.035714,12.142858 0 1 1 -26.0714283,0 13.035714,12.142858 0 1 1 26.0714283,0 z"
       transform="matrix(0.73780208,0,0,0.79205219,-1.1717799,927.16599)" />
    <path
       sodipodi:type="arc"
       style="fill:#cccccc;fill-opacity:1;stroke:#999999;stroke-width:1;stroke-miterlimit:4;stroke-opacity:1;stroke-dasharray:none;stroke-dashoffset:0"
       id="path3004-2"
       sodipodi:cx="14.464286"
       sodipodi:cy="146.07143"
       sodipodi:rx="13.035714"
       sodipodi:ry="12.142858"
       d="m 27.5,146.07143 a 13.035714,12.142858 0 1 1 -26.0714283,0 13.035714,12.142858 0 1 1 26.0714283,0 z"
       transform="matrix(0.73780208,0,0,0.79205219,18.256791,927.38027)" />
    <path
       sodipodi:type="arc"
       style="fill:#cccccc;fill-opacity:1;stroke:#999999;stroke-width:1;stroke-miterlimit:4;stroke-opacity:1;stroke-dasharray:none;stroke-dashoffset:0"
       id="path3004-1"
       sodipodi:cx="14.464286"
       sodipodi:cy="146.07143"
       sodipodi:rx="13.035714"
       sodipodi:ry="12.142858"
       d="m 27.5,146.07143 a 13.035714,12.142858 0 1 1 -26.0714283,0 13.035714,12.142858 0 1 1 26.0714283,0 z"
       transform="matrix(0.73780208,0,0,0.79205219,37.542505,927.38027)" />
    <path
       sodipodi:type="arc"
       style="fill:#cccccc;fill-opacity:1;stroke:#999999;stroke-width:1;stroke-miterlimit:4;stroke-opacity:1;stroke-dasharray:none;stroke-dashoffset:0"
       id="path3004-6"
       sodipodi:cx="14.464286"
       sodipodi:cy="146.07143"
       sodipodi:rx="13.035714"
       sodipodi:ry="12.142858"
       d="m 27.5,146.07143 a 13.035714,12.142858 0 1 1 -26.0714283,0 13.035714,12.142858 0 1 1 26.0714283,0 z"
       transform="matrix(0.73780208,0,0,0.79205219,56.82822,927.02313)" />
    <path
       sodipodi:type="arc"
       style="fill:#cccccc;fill-opacity:1;stroke:#999999;stroke-width:1;stroke-miterlimit:4;stroke-opacity:1;stroke-dasharray:none;stroke-dashoffset:0"
       id="path3004-3"
       sodipodi:cx="14.464286"
       sodipodi:cy="146.07143"
       sodipodi:rx="13.035714"
       sodipodi:ry="12.142858"
       d="m 27.5,146.07143 a 13.035714,12.142858 0 1 1 -26.0714283,0 13.035714,12.142858 0 1 1 26.0714283,0 z"
       transform="matrix(0.73780208,0,0,0.79205219,76.471077,927.38028)" />
    <path
       sodipodi:type="arc"
       style="fill:#cccccc;fill-opacity:1;stroke:#999999;stroke-width:1;stroke-miterlimit:4;stroke-opacity:1;stroke-dasharray:none;stroke-dashoffset:0"
       id="path3004-7"
       sodipodi:cx="14.464286"
       sodipodi:cy="146.07143"
       sodipodi:rx="13.035714"
       sodipodi:ry="12.142858"
       d="m 27.5,146.07143 a 13.035714,12.142858 0 1 1 -26.0714283,0 13.035714,12.142858 0 1 1 26.0714283,0 z"
       transform="matrix(0.73780208,0,0,0.79205219,95.756787,927.02313)" />
    <path
       sodipodi:type="arc"
       style="fill:#cccccc;fill-opacity:1;stroke:#999999;stroke-width:1;stroke-miterlimit:4;stroke-opacity:1;stroke-dasharray:none;stroke-dashoffset:0"
       id="path3004-9"
       sodipodi:cx="14.464286"
       sodipodi:cy="146.07143"
       sodipodi:rx="13.035714"
       sodipodi:ry="12.142858"
       d="m 27.5,146.07143 a 13.035714,12.142858 0 1 1 -26.0714283,0 13.035714,12.142858 0 1 1 26.0714283,0 z"
       transform="matrix(0.73780208,0,0,0.79205219,115.0425,927.38027)" />
    <path
       sodipodi:type="arc"
       style="fill:#cccccc;fill-opacity:1;stroke:#999999;stroke-width:1;stroke-miterlimit:4;stroke-opacity:1;stroke-dasharray:none;stroke-dashoffset:0"
       id="path3004-21"
       sodipodi:cx="14.464286"
       sodipodi:cy="146.07143"
       sodipodi:rx="13.035714"
       sodipodi:ry="12.142858"
       d="m 27.5,146.07143 a 13.035714,12.142858 0 1 1 -26.0714283,0 13.035714,12.142858 0 1 1 26.0714283,0 z"
       transform="matrix(0.73780208,0,0,0.79205219,134.32822,927.02313)" />
    <path
       sodipodi:type="arc"
       style="fill:#cccccc;fill-opacity:1;stroke:#999999;stroke-width:1;stroke-miterlimit:4;stroke-opacity:1;stroke-dasharray:none;stroke-dashoffset:0"
       id="path3004-70"
       sodipodi:cx="14.464286"
       sodipodi:cy="146.07143"
       sodipodi:rx="13.035714"
       sodipodi:ry="12.142858"
       d="m 27.5,146.07143 a 13.035714,12.142858 0 1 1 -26.0714283,0 13.035714,12.142858 0 1 1 26.0714283,0 z"
       transform="matrix(0.73780208,0,0,0.79205219,153.97107,927.38027)" />
    <path
       sodipodi:type="arc"
       style="fill:#cccccc;fill-opacity:1;stroke:#999999;stroke-width:1;stroke-miterlimit:4;stroke-opacity:1;stroke-dasharray:none;stroke-dashoffset:0"
       id="path3004-94"
       sodipodi:cx="14.464286"
       sodipodi:cy="146.07143"
       sodipodi:rx="13.035714"
       sodipodi:ry="12.142858"
       d="m 27.5,146.07143 a 13.035714,12.142858 0 1 1 -26.0714283,0 13.035714,12.142858 0 1 1 26.0714283,0 z"
       transform="matrix(0.73780208,0,0,0.79205219,-11.100348,909.84456)" />
    <path
       sodipodi:type="arc"
       style="fill:#cccccc;fill-opacity:1;stroke:#999999;stroke-width:1;stroke-miterlimit:4;stroke-opacity:1;stroke-dasharray:none;stroke-dashoffset:0"
       id="path3004-2-9"
       sodipodi:cx="14.464286"
       sodipodi:cy="146.07143"
       sodipodi:rx="13.035714"
       sodipodi:ry="12.142858"
       d="m 27.5,146.07143 a 13.035714,12.142858 0 1 1 -26.0714283,0 13.035714,12.142858 0 1 1 26.0714283,0 z"
       transform="matrix(0.73780208,0,0,0.79205219,8.3282231,910.05884)" />
    <path
       sodipodi:type="arc"
       style="fill:#cccccc;fill-opacity:1;stroke:#999999;stroke-width:1;stroke-miterlimit:4;stroke-opacity:1;stroke-dasharray:none;stroke-dashoffset:0"
       id="path3004-1-3"
       sodipodi:cx="14.464286"
       sodipodi:cy="146.07143"
       sodipodi:rx="13.035714"
       sodipodi:ry="12.142858"
       d="m 27.5,146.07143 a 13.035714,12.142858 0 1 1 -26.0714283,0 13.035714,12.142858 0 1 1 26.0714283,0 z"
       transform="matrix(0.73780208,0,0,0.79205219,27.613937,910.05884)" />
    <path
       sodipodi:type="arc"
       style="fill:#cccccc;fill-opacity:1;stroke:#999999;stroke-width:1;stroke-miterlimit:4;stroke-opacity:1;stroke-dasharray:none;stroke-dashoffset:0"
       id="path3004-6-2"
       sodipodi:cx="14.464286"
       sodipodi:cy="146.07143"
       sodipodi:rx="13.035714"
       sodipodi:ry="12.142858"
       d="m 27.5,146.07143 a 13.035714,12.142858 0 1 1 -26.0714283,0 13.035714,12.142858 0 1 1 26.0714283,0 z"
       transform="matrix(0.73780208,0,0,0.79205219,46.899652,909.7017)" />
    <path
       sodipodi:type="arc"
       style="fill:#cccccc;fill-opacity:1;stroke:#999999;stroke-width:1;stroke-miterlimit:4;stroke-opacity:1;stroke-dasharray:none;stroke-dashoffset:0"
       id="path3004-3-8"
       sodipodi:cx="14.464286"
       sodipodi:cy="146.07143"
       sodipodi:rx="13.035714"
       sodipodi:ry="12.142858"
       d="m 27.5,146.07143 a 13.035714,12.142858 0 1 1 -26.0714283,0 13.035714,12.142858 0 1 1 26.0714283,0 z"
       transform="matrix(0.73780208,0,0,0.79205219,66.542507,910.05885)" />
    <path
       sodipodi:type="arc"
       style="fill:#cccccc;fill-opacity:1;stroke:#999999;stroke-width:1;stroke-miterlimit:4;stroke-opacity:1;stroke-dasharray:none;stroke-dashoffset:0"
       id="path3004-7-8"
       sodipodi:cx="14.464286"
       sodipodi:cy="146.07143"
       sodipodi:rx="13.035714"
       sodipodi:ry="12.142858"
       d="m 27.5,146.07143 a 13.035714,12.142858 0 1 1 -26.0714283,0 13.035714,12.142858 0 1 1 26.0714283,0 z"
       transform="matrix(0.73780208,0,0,0.79205219,85.828217,909.7017)" />
    <path
       sodipodi:type="arc"
       style="fill:#cccccc;fill-opacity:1;stroke:#999999;stroke-width:1;stroke-miterlimit:4;stroke-opacity:1;stroke-dasharray:none;stroke-dashoffset:0"
       id="path3004-9-9"
       sodipodi:cx="14.464286"
       sodipodi:cy="146.07143"
       sodipodi:rx="13.035714"
       sodipodi:ry="12.142858"
       d="m 27.5,146.07143 a 13.035714,12.142858 0 1 1 -26.0714283,0 13.035714,12.142858 0 1 1 26.0714283,0 z"
       transform="matrix(0.73780208,0,0,0.79205219,105.11394,910.05884)" />
    <path
       sodipodi:type="arc"
       style="fill:#cccccc;fill-opacity:1;stroke:#999999;stroke-width:1;stroke-miterlimit:4;stroke-opacity:1;stroke-dasharray:none;stroke-dashoffset:0"
       id="path3004-21-4"
       sodipodi:cx="14.464286"
       sodipodi:cy="146.07143"
       sodipodi:rx="13.035714"
       sodipodi:ry="12.142858"
       d="m 27.5,146.07143 a 13.035714,12.142858 0 1 1 -26.0714283,0 13.035714,12.142858 0 1 1 26.0714283,0 z"
       transform="matrix(0.73780208,0,0,0.79205219,124.39966,909.7017)" />
    <path
       sodipodi:type="arc"
       style="fill:#cccccc;fill-opacity:1;stroke:#999999;stroke-width:1;stroke-miterlimit:4;stroke-opacity:1;stroke-dasharray:none;stroke-dashoffset:0"
       id="path3004-70-7"
       sodipodi:cx="14.464286"
       sodipodi:cy="146.07143"
       sodipodi:rx="13.035714"
       sodipodi:ry="12.142858"
       d="m 27.5,146.07143 a 13.035714,12.142858 0 1 1 -26.0714283,0 13.035714,12.142858 0 1 1 26.0714283,0 z"
       transform="matrix(0.73780208,0,0,0.79205219,144.04251,910.05884)" />
    <path
       sodipodi:type="arc"
       style="fill:#cccccc;fill-opacity:1;stroke:#999999;stroke-width:1;stroke-miterlimit:4;stroke-opacity:1;stroke-dasharray:none;stroke-dashoffset:0"
       id="path3004-39"
       sodipodi:cx="14.464286"
       sodipodi:cy="146.07143"
       sodipodi:rx="13.035714"
       sodipodi:ry="12.142858"
       d="m 27.5,146.07143 a 13.035714,12.142858 0 1 1 -26.0714283,0 13.035714,12.142858 0 1 1 26.0714283,0 z"
       transform="matrix(0.73780208,0,0,0.79205219,-1.1003482,893.05884)" />
    <path
       sodipodi:type="arc"
       style="fill:#cccccc;fill-opacity:1;stroke:#999999;stroke-width:1;stroke-miterlimit:4;stroke-opacity:1;stroke-dasharray:none;stroke-dashoffset:0"
       id="path3004-2-0"
       sodipodi:cx="14.464286"
       sodipodi:cy="146.07143"
       sodipodi:rx="13.035714"
       sodipodi:ry="12.142858"
       d="m 27.5,146.07143 a 13.035714,12.142858 0 1 1 -26.0714283,0 13.035714,12.142858 0 1 1 26.0714283,0 z"
       transform="matrix(0.73780208,0,0,0.79205219,18.328223,893.27312)" />
    <path
       sodipodi:type="arc"
       style="fill:#cccccc;fill-opacity:1;stroke:#999999;stroke-width:1;stroke-miterlimit:4;stroke-opacity:1;stroke-dasharray:none;stroke-dashoffset:0"
       id="path3004-1-0"
       sodipodi:cx="14.464286"
       sodipodi:cy="146.07143"
       sodipodi:rx="13.035714"
       sodipodi:ry="12.142858"
       d="m 27.5,146.07143 a 13.035714,12.142858 0 1 1 -26.0714283,0 13.035714,12.142858 0 1 1 26.0714283,0 z"
       transform="matrix(0.73780208,0,0,0.79205219,37.613937,893.27312)" />
    <path
       sodipodi:type="arc"
       style="fill:#cccccc;fill-opacity:1;stroke:#999999;stroke-width:1;stroke-miterlimit:4;stroke-opacity:1;stroke-dasharray:none;stroke-dashoffset:0"
       id="path3004-6-6"
       sodipodi:cx="14.464286"
       sodipodi:cy="146.07143"
       sodipodi:rx="13.035714"
       sodipodi:ry="12.142858"
       d="m 27.5,146.07143 a 13.035714,12.142858 0 1 1 -26.0714283,0 13.035714,12.142858 0 1 1 26.0714283,0 z"
       transform="matrix(0.73780208,0,0,0.79205219,56.899652,892.91598)" />
    <path
       sodipodi:type="arc"
       style="fill:#cccccc;fill-opacity:1;stroke:#999999;stroke-width:1;stroke-miterlimit:4;stroke-opacity:1;stroke-dasharray:none;stroke-dashoffset:0"
       id="path3004-3-5"
       sodipodi:cx="14.464286"
       sodipodi:cy="146.07143"
       sodipodi:rx="13.035714"
       sodipodi:ry="12.142858"
       d="m 27.5,146.07143 a 13.035714,12.142858 0 1 1 -26.0714283,0 13.035714,12.142858 0 1 1 26.0714283,0 z"
       transform="matrix(0.73780208,0,0,0.79205219,76.542509,893.27313)" />
    <path
       sodipodi:type="arc"
       style="fill:#cccccc;fill-opacity:1;stroke:#999999;stroke-width:1;stroke-miterlimit:4;stroke-opacity:1;stroke-dasharray:none;stroke-dashoffset:0"
       id="path3004-7-1"
       sodipodi:cx="14.464286"
       sodipodi:cy="146.07143"
       sodipodi:rx="13.035714"
       sodipodi:ry="12.142858"
       d="m 27.5,146.07143 a 13.035714,12.142858 0 1 1 -26.0714283,0 13.035714,12.142858 0 1 1 26.0714283,0 z"
       transform="matrix(0.73780208,0,0,0.79205219,95.828219,892.91598)" />
    <path
       sodipodi:type="arc"
       style="fill:#cccccc;fill-opacity:1;stroke:#999999;stroke-width:1;stroke-miterlimit:4;stroke-opacity:1;stroke-dasharray:none;stroke-dashoffset:0"
       id="path3004-9-5"
       sodipodi:cx="14.464286"
       sodipodi:cy="146.07143"
       sodipodi:rx="13.035714"
       sodipodi:ry="12.142858"
       d="m 27.5,146.07143 a 13.035714,12.142858 0 1 1 -26.0714283,0 13.035714,12.142858 0 1 1 26.0714283,0 z"
       transform="matrix(0.73780208,0,0,0.79205219,115.11393,893.27312)" />
    <path
       sodipodi:type="arc"
       style="fill:#cccccc;fill-opacity:1;stroke:#999999;stroke-width:1;stroke-miterlimit:4;stroke-opacity:1;stroke-dasharray:none;stroke-dashoffset:0"
       id="path3004-21-9"
       sodipodi:cx="14.464286"
       sodipodi:cy="146.07143"
       sodipodi:rx="13.035714"
       sodipodi:ry="12.142858"
       d="m 27.5,146.07143 a 13.035714,12.142858 0 1 1 -26.0714283,0 13.035714,12.142858 0 1 1 26.0714283,0 z"
       transform="matrix(0.73780208,0,0,0.79205219,134.39966,892.91598)" />
    <path
       sodipodi:type="arc"
       style="fill:#cccccc;fill-opacity:1;stroke:#999999;stroke-width:1;stroke-miterlimit:4;stroke-opacity:1;stroke-dasharray:none;stroke-dashoffset:0"
       id="path3004-70-9"
       sodipodi:cx="14.464286"
       sodipodi:cy="146.07143"
       sodipodi:rx="13.035714"
       sodipodi:ry="12.142858"
       d="m 27.5,146.07143 a 13.035714,12.142858 0 1 1 -26.0714283,0 13.035714,12.142858 0 1 1 26.0714283,0 z"
       transform="matrix(0.73780208,0,0,0.79205219,154.04251,893.27312)" />
    <path
       sodipodi:type="arc"
       style="fill:#cccccc;fill-opacity:1;stroke:#999999;stroke-width:1;stroke-miterlimit:4;stroke-opacity:1;stroke-dasharray:none;stroke-dashoffset:0"
       id="path3004-61"
       sodipodi:cx="14.464286"
       sodipodi:cy="146.07143"
       sodipodi:rx="13.035714"
       sodipodi:ry="12.142858"
       d="m 27.5,146.07143 a 13.035714,12.142858 0 1 1 -26.0714283,0 13.035714,12.142858 0 1 1 26.0714283,0 z"
       transform="matrix(0.73780208,0,0,0.79205219,-10.743205,876.27313)" />
    <path
       sodipodi:type="arc"
       style="fill:#cccccc;fill-opacity:1;stroke:#999999;stroke-width:1;stroke-miterlimit:4;stroke-opacity:1;stroke-dasharray:none;stroke-dashoffset:0"
       id="path3004-2-2"
       sodipodi:cx="14.464286"
       sodipodi:cy="146.07143"
       sodipodi:rx="13.035714"
       sodipodi:ry="12.142858"
       d="m 27.5,146.07143 a 13.035714,12.142858 0 1 1 -26.0714283,0 13.035714,12.142858 0 1 1 26.0714283,0 z"
       transform="matrix(0.73780208,0,0,0.79205219,8.6853657,876.48741)" />
    <path
       sodipodi:type="arc"
       style="fill:#cccccc;fill-opacity:1;stroke:#999999;stroke-width:1;stroke-miterlimit:4;stroke-opacity:1;stroke-dasharray:none;stroke-dashoffset:0"
       id="path3004-1-36"
       sodipodi:cx="14.464286"
       sodipodi:cy="146.07143"
       sodipodi:rx="13.035714"
       sodipodi:ry="12.142858"
       d="m 27.5,146.07143 a 13.035714,12.142858 0 1 1 -26.0714283,0 13.035714,12.142858 0 1 1 26.0714283,0 z"
       transform="matrix(0.73780208,0,0,0.79205219,27.97108,876.48741)" />
    <path
       sodipodi:type="arc"
       style="fill:#cccccc;fill-opacity:1;stroke:#999999;stroke-width:1;stroke-miterlimit:4;stroke-opacity:1;stroke-dasharray:none;stroke-dashoffset:0"
       id="path3004-6-0"
       sodipodi:cx="14.464286"
       sodipodi:cy="146.07143"
       sodipodi:rx="13.035714"
       sodipodi:ry="12.142858"
       d="m 27.5,146.07143 a 13.035714,12.142858 0 1 1 -26.0714283,0 13.035714,12.142858 0 1 1 26.0714283,0 z"
       transform="matrix(0.73780208,0,0,0.79205219,47.256795,876.13027)" />
    <path
       sodipodi:type="arc"
       style="fill:#cccccc;fill-opacity:1;stroke:#999999;stroke-width:1;stroke-miterlimit:4;stroke-opacity:1;stroke-dasharray:none;stroke-dashoffset:0"
       id="path3004-3-2"
       sodipodi:cx="14.464286"
       sodipodi:cy="146.07143"
       sodipodi:rx="13.035714"
       sodipodi:ry="12.142858"
       d="m 27.5,146.07143 a 13.035714,12.142858 0 1 1 -26.0714283,0 13.035714,12.142858 0 1 1 26.0714283,0 z"
       transform="matrix(0.73780208,0,0,0.79205219,66.899652,876.48742)" />
    <path
       sodipodi:type="arc"
       style="fill:#cccccc;fill-opacity:1;stroke:#999999;stroke-width:1;stroke-miterlimit:4;stroke-opacity:1;stroke-dasharray:none;stroke-dashoffset:0"
       id="path3004-7-9"
       sodipodi:cx="14.464286"
       sodipodi:cy="146.07143"
       sodipodi:rx="13.035714"
       sodipodi:ry="12.142858"
       d="m 27.5,146.07143 a 13.035714,12.142858 0 1 1 -26.0714283,0 13.035714,12.142858 0 1 1 26.0714283,0 z"
       transform="matrix(0.73780208,0,0,0.79205219,86.185362,876.13027)" />
    <path
       sodipodi:type="arc"
       style="fill:#cccccc;fill-opacity:1;stroke:#999999;stroke-width:1;stroke-miterlimit:4;stroke-opacity:1;stroke-dasharray:none;stroke-dashoffset:0"
       id="path3004-9-3"
       sodipodi:cx="14.464286"
       sodipodi:cy="146.07143"
       sodipodi:rx="13.035714"
       sodipodi:ry="12.142858"
       d="m 27.5,146.07143 a 13.035714,12.142858 0 1 1 -26.0714283,0 13.035714,12.142858 0 1 1 26.0714283,0 z"
       transform="matrix(0.73780208,0,0,0.79205219,105.47108,876.48741)" />
    <path
       sodipodi:type="arc"
       style="fill:#cccccc;fill-opacity:1;stroke:#999999;stroke-width:1;stroke-miterlimit:4;stroke-opacity:1;stroke-dasharray:none;stroke-dashoffset:0"
       id="path3004-21-1"
       sodipodi:cx="14.464286"
       sodipodi:cy="146.07143"
       sodipodi:rx="13.035714"
       sodipodi:ry="12.142858"
       d="m 27.5,146.07143 a 13.035714,12.142858 0 1 1 -26.0714283,0 13.035714,12.142858 0 1 1 26.0714283,0 z"
       transform="matrix(0.73780208,0,0,0.79205219,124.7568,876.13027)" />
    <path
       sodipodi:type="arc"
       style="fill:#cccccc;fill-opacity:1;stroke:#999999;stroke-width:1;stroke-miterlimit:4;stroke-opacity:1;stroke-dasharray:none;stroke-dashoffset:0"
       id="path3004-70-1"
       sodipodi:cx="14.464286"
       sodipodi:cy="146.07143"
       sodipodi:rx="13.035714"
       sodipodi:ry="12.142858"
       d="m 27.5,146.07143 a 13.035714,12.142858 0 1 1 -26.0714283,0 13.035714,12.142858 0 1 1 26.0714283,0 z"
       transform="matrix(0.73780208,0,0,0.79205219,144.39965,876.48741)" />
    <path
       sodipodi:type="arc"
       style="fill:#cccccc;fill-opacity:1;stroke:#999999;stroke-width:1;stroke-miterlimit:4;stroke-opacity:1;stroke-dasharray:none;stroke-dashoffset:0"
       id="path3004-25"
       sodipodi:cx="14.464286"
       sodipodi:cy="146.07143"
       sodipodi:rx="13.035714"
       sodipodi:ry="12.142858"
       d="m 27.5,146.07143 a 13.035714,12.142858 0 1 1 -26.0714283,0 13.035714,12.142858 0 1 1 26.0714283,0 z"
       transform="matrix(0.73780208,0,0,0.79205219,-0.81464209,859.21956)" />
    <path
       sodipodi:type="arc"
       style="fill:#cccccc;fill-opacity:1;stroke:#999999;stroke-width:1;stroke-miterlimit:4;stroke-opacity:1;stroke-dasharray:none;stroke-dashoffset:0"
       id="path3004-2-07"
       sodipodi:cx="14.464286"
       sodipodi:cy="146.07143"
       sodipodi:rx="13.035714"
       sodipodi:ry="12.142858"
       d="m 27.5,146.07143 a 13.035714,12.142858 0 1 1 -26.0714283,0 13.035714,12.142858 0 1 1 26.0714283,0 z"
       transform="matrix(0.73780208,0,0,0.79205219,18.613929,859.43384)" />
    <path
       sodipodi:type="arc"
       style="fill:#cccccc;fill-opacity:1;stroke:#999999;stroke-width:1;stroke-miterlimit:4;stroke-opacity:1;stroke-dasharray:none;stroke-dashoffset:0"
       id="path3004-1-7"
       sodipodi:cx="14.464286"
       sodipodi:cy="146.07143"
       sodipodi:rx="13.035714"
       sodipodi:ry="12.142858"
       d="m 27.5,146.07143 a 13.035714,12.142858 0 1 1 -26.0714283,0 13.035714,12.142858 0 1 1 26.0714283,0 z"
       transform="matrix(0.73780208,0,0,0.79205219,37.899643,859.43384)" />
    <path
       sodipodi:type="arc"
       style="fill:#cccccc;fill-opacity:1;stroke:#999999;stroke-width:1;stroke-miterlimit:4;stroke-opacity:1;stroke-dasharray:none;stroke-dashoffset:0"
       id="path3004-6-06"
       sodipodi:cx="14.464286"
       sodipodi:cy="146.07143"
       sodipodi:rx="13.035714"
       sodipodi:ry="12.142858"
       d="m 27.5,146.07143 a 13.035714,12.142858 0 1 1 -26.0714283,0 13.035714,12.142858 0 1 1 26.0714283,0 z"
       transform="matrix(0.73780208,0,0,0.79205219,57.18536,859.0767)" />
    <path
       sodipodi:type="arc"
       style="fill:#cccccc;fill-opacity:1;stroke:#999999;stroke-width:1;stroke-miterlimit:4;stroke-opacity:1;stroke-dasharray:none;stroke-dashoffset:0"
       id="path3004-3-9"
       sodipodi:cx="14.464286"
       sodipodi:cy="146.07143"
       sodipodi:rx="13.035714"
       sodipodi:ry="12.142858"
       d="m 27.5,146.07143 a 13.035714,12.142858 0 1 1 -26.0714283,0 13.035714,12.142858 0 1 1 26.0714283,0 z"
       transform="matrix(0.73780208,0,0,0.79205219,76.82822,859.43385)" />
    <path
       sodipodi:type="arc"
       style="fill:#cccccc;fill-opacity:1;stroke:#999999;stroke-width:1;stroke-miterlimit:4;stroke-opacity:1;stroke-dasharray:none;stroke-dashoffset:0"
       id="path3004-7-5"
       sodipodi:cx="14.464286"
       sodipodi:cy="146.07143"
       sodipodi:rx="13.035714"
       sodipodi:ry="12.142858"
       d="m 27.5,146.07143 a 13.035714,12.142858 0 1 1 -26.0714283,0 13.035714,12.142858 0 1 1 26.0714283,0 z"
       transform="matrix(0.73780208,0,0,0.79205219,96.11392,859.0767)" />
    <path
       sodipodi:type="arc"
       style="fill:#cccccc;fill-opacity:1;stroke:#999999;stroke-width:1;stroke-miterlimit:4;stroke-opacity:1;stroke-dasharray:none;stroke-dashoffset:0"
       id="path3004-9-34"
       sodipodi:cx="14.464286"
       sodipodi:cy="146.07143"
       sodipodi:rx="13.035714"
       sodipodi:ry="12.142858"
       d="m 27.5,146.07143 a 13.035714,12.142858 0 1 1 -26.0714283,0 13.035714,12.142858 0 1 1 26.0714283,0 z"
       transform="matrix(0.73780208,0,0,0.79205219,115.39964,859.43384)" />
    <path
       sodipodi:type="arc"
       style="fill:#cccccc;fill-opacity:1;stroke:#999999;stroke-width:1;stroke-miterlimit:4;stroke-opacity:1;stroke-dasharray:none;stroke-dashoffset:0"
       id="path3004-21-6"
       sodipodi:cx="14.464286"
       sodipodi:cy="146.07143"
       sodipodi:rx="13.035714"
       sodipodi:ry="12.142858"
       d="m 27.5,146.07143 a 13.035714,12.142858 0 1 1 -26.0714283,0 13.035714,12.142858 0 1 1 26.0714283,0 z"
       transform="matrix(0.73780208,0,0,0.79205219,134.68536,859.0767)" />
    <path
       sodipodi:type="arc"
       style="fill:#cccccc;fill-opacity:1;stroke:#999999;stroke-width:1;stroke-miterlimit:4;stroke-opacity:1;stroke-dasharray:none;stroke-dashoffset:0"
       id="path3004-70-5"
       sodipodi:cx="14.464286"
       sodipodi:cy="146.07143"
       sodipodi:rx="13.035714"
       sodipodi:ry="12.142858"
       d="m 27.5,146.07143 a 13.035714,12.142858 0 1 1 -26.0714283,0 13.035714,12.142858 0 1 1 26.0714283,0 z"
       transform="matrix(0.73780208,0,0,0.79205219,154.32821,859.43384)" />
    <path
       sodipodi:type="arc"
       style="fill:#cccccc;fill-opacity:1;stroke:#999999;stroke-width:1;stroke-miterlimit:4;stroke-opacity:1;stroke-dasharray:none;stroke-dashoffset:0"
       id="path3004-94-4"
       sodipodi:cx="14.464286"
       sodipodi:cy="146.07143"
       sodipodi:rx="13.035714"
       sodipodi:ry="12.142858"
       d="m 27.5,146.07143 a 13.035714,12.142858 0 1 1 -26.0714283,0 13.035714,12.142858 0 1 1 26.0714283,0 z"
       transform="matrix(0.73780208,0,0,0.79205219,-10.74321,841.89813)" />
    <path
       sodipodi:type="arc"
       style="fill:#cccccc;fill-opacity:1;stroke:#999999;stroke-width:1;stroke-miterlimit:4;stroke-opacity:1;stroke-dasharray:none;stroke-dashoffset:0"
       id="path3004-2-9-2"
       sodipodi:cx="14.464286"
       sodipodi:cy="146.07143"
       sodipodi:rx="13.035714"
       sodipodi:ry="12.142858"
       d="m 27.5,146.07143 a 13.035714,12.142858 0 1 1 -26.0714283,0 13.035714,12.142858 0 1 1 26.0714283,0 z"
       transform="matrix(0.73780208,0,0,0.79205219,8.6853609,842.11241)" />
    <path
       sodipodi:type="arc"
       style="fill:#cccccc;fill-opacity:1;stroke:#999999;stroke-width:1;stroke-miterlimit:4;stroke-opacity:1;stroke-dasharray:none;stroke-dashoffset:0"
       id="path3004-1-3-0"
       sodipodi:cx="14.464286"
       sodipodi:cy="146.07143"
       sodipodi:rx="13.035714"
       sodipodi:ry="12.142858"
       d="m 27.5,146.07143 a 13.035714,12.142858 0 1 1 -26.0714283,0 13.035714,12.142858 0 1 1 26.0714283,0 z"
       transform="matrix(0.73780208,0,0,0.79205219,27.971075,842.11241)" />
    <path
       sodipodi:type="arc"
       style="fill:#cccccc;fill-opacity:1;stroke:#999999;stroke-width:1;stroke-miterlimit:4;stroke-opacity:1;stroke-dasharray:none;stroke-dashoffset:0"
       id="path3004-6-2-8"
       sodipodi:cx="14.464286"
       sodipodi:cy="146.07143"
       sodipodi:rx="13.035714"
       sodipodi:ry="12.142858"
       d="m 27.5,146.07143 a 13.035714,12.142858 0 1 1 -26.0714283,0 13.035714,12.142858 0 1 1 26.0714283,0 z"
       transform="matrix(0.73780208,0,0,0.79205219,47.25679,841.75527)" />
    <path
       sodipodi:type="arc"
       style="fill:#cccccc;fill-opacity:1;stroke:#999999;stroke-width:1;stroke-miterlimit:4;stroke-opacity:1;stroke-dasharray:none;stroke-dashoffset:0"
       id="path3004-3-8-0"
       sodipodi:cx="14.464286"
       sodipodi:cy="146.07143"
       sodipodi:rx="13.035714"
       sodipodi:ry="12.142858"
       d="m 27.5,146.07143 a 13.035714,12.142858 0 1 1 -26.0714283,0 13.035714,12.142858 0 1 1 26.0714283,0 z"
       transform="matrix(0.73780208,0,0,0.79205219,66.89965,842.11242)" />
    <path
       sodipodi:type="arc"
       style="fill:#cccccc;fill-opacity:1;stroke:#999999;stroke-width:1;stroke-miterlimit:4;stroke-opacity:1;stroke-dasharray:none;stroke-dashoffset:0"
       id="path3004-7-8-1"
       sodipodi:cx="14.464286"
       sodipodi:cy="146.07143"
       sodipodi:rx="13.035714"
       sodipodi:ry="12.142858"
       d="m 27.5,146.07143 a 13.035714,12.142858 0 1 1 -26.0714283,0 13.035714,12.142858 0 1 1 26.0714283,0 z"
       transform="matrix(0.73780208,0,0,0.79205219,86.18536,841.75527)" />
    <path
       sodipodi:type="arc"
       style="fill:#cccccc;fill-opacity:1;stroke:#999999;stroke-width:1;stroke-miterlimit:4;stroke-opacity:1;stroke-dasharray:none;stroke-dashoffset:0"
       id="path3004-9-9-9"
       sodipodi:cx="14.464286"
       sodipodi:cy="146.07143"
       sodipodi:rx="13.035714"
       sodipodi:ry="12.142858"
       d="m 27.5,146.07143 a 13.035714,12.142858 0 1 1 -26.0714283,0 13.035714,12.142858 0 1 1 26.0714283,0 z"
       transform="matrix(0.73780208,0,0,0.79205219,105.47108,842.11241)" />
    <path
       sodipodi:type="arc"
       style="fill:#cccccc;fill-opacity:1;stroke:#999999;stroke-width:1;stroke-miterlimit:4;stroke-opacity:1;stroke-dasharray:none;stroke-dashoffset:0"
       id="path3004-21-4-6"
       sodipodi:cx="14.464286"
       sodipodi:cy="146.07143"
       sodipodi:rx="13.035714"
       sodipodi:ry="12.142858"
       d="m 27.5,146.07143 a 13.035714,12.142858 0 1 1 -26.0714283,0 13.035714,12.142858 0 1 1 26.0714283,0 z"
       transform="matrix(0.73780208,0,0,0.79205219,124.7568,841.75527)" />
    <path
       sodipodi:type="arc"
       style="fill:#cccccc;fill-opacity:1;stroke:#999999;stroke-width:1;stroke-miterlimit:4;stroke-opacity:1;stroke-dasharray:none;stroke-dashoffset:0"
       id="path3004-70-7-2"
       sodipodi:cx="14.464286"
       sodipodi:cy="146.07143"
       sodipodi:rx="13.035714"
       sodipodi:ry="12.142858"
       d="m 27.5,146.07143 a 13.035714,12.142858 0 1 1 -26.0714283,0 13.035714,12.142858 0 1 1 26.0714283,0 z"
       transform="matrix(0.73780208,0,0,0.79205219,144.39965,842.11241)" />
    <path
       sodipodi:type="arc"
       style="fill:#cccccc;fill-opacity:1;stroke:#999999;stroke-width:1;stroke-miterlimit:4;stroke-opacity:1;stroke-dasharray:none;stroke-dashoffset:0"
       id="path3004-39-2"
       sodipodi:cx="14.464286"
       sodipodi:cy="146.07143"
       sodipodi:rx="13.035714"
       sodipodi:ry="12.142858"
       d="m 27.5,146.07143 a 13.035714,12.142858 0 1 1 -26.0714283,0 13.035714,12.142858 0 1 1 26.0714283,0 z"
       transform="matrix(0.73780208,0,0,0.79205219,-0.74321009,825.11241)" />
    <path
       sodipodi:type="arc"
       style="fill:#cccccc;fill-opacity:1;stroke:#999999;stroke-width:1;stroke-miterlimit:4;stroke-opacity:1;stroke-dasharray:none;stroke-dashoffset:0"
       id="path3004-2-0-1"
       sodipodi:cx="14.464286"
       sodipodi:cy="146.07143"
       sodipodi:rx="13.035714"
       sodipodi:ry="12.142858"
       d="m 27.5,146.07143 a 13.035714,12.142858 0 1 1 -26.0714283,0 13.035714,12.142858 0 1 1 26.0714283,0 z"
       transform="matrix(0.73780208,0,0,0.79205219,18.685361,825.32669)" />
    <path
       sodipodi:type="arc"
       style="fill:#cccccc;fill-opacity:1;stroke:#999999;stroke-width:1;stroke-miterlimit:4;stroke-opacity:1;stroke-dasharray:none;stroke-dashoffset:0"
       id="path3004-1-0-0"
       sodipodi:cx="14.464286"
       sodipodi:cy="146.07143"
       sodipodi:rx="13.035714"
       sodipodi:ry="12.142858"
       d="m 27.5,146.07143 a 13.035714,12.142858 0 1 1 -26.0714283,0 13.035714,12.142858 0 1 1 26.0714283,0 z"
       transform="matrix(0.73780208,0,0,0.79205219,37.971075,825.32669)" />
    <path
       sodipodi:type="arc"
       style="fill:#cccccc;fill-opacity:1;stroke:#999999;stroke-width:1;stroke-miterlimit:4;stroke-opacity:1;stroke-dasharray:none;stroke-dashoffset:0"
       id="path3004-6-6-2"
       sodipodi:cx="14.464286"
       sodipodi:cy="146.07143"
       sodipodi:rx="13.035714"
       sodipodi:ry="12.142858"
       d="m 27.5,146.07143 a 13.035714,12.142858 0 1 1 -26.0714283,0 13.035714,12.142858 0 1 1 26.0714283,0 z"
       transform="matrix(0.73780208,0,0,0.79205219,57.25679,824.96955)" />
    <path
       sodipodi:type="arc"
       style="fill:#cccccc;fill-opacity:1;stroke:#999999;stroke-width:1;stroke-miterlimit:4;stroke-opacity:1;stroke-dasharray:none;stroke-dashoffset:0"
       id="path3004-3-5-5"
       sodipodi:cx="14.464286"
       sodipodi:cy="146.07143"
       sodipodi:rx="13.035714"
       sodipodi:ry="12.142858"
       d="m 27.5,146.07143 a 13.035714,12.142858 0 1 1 -26.0714283,0 13.035714,12.142858 0 1 1 26.0714283,0 z"
       transform="matrix(0.73780208,0,0,0.79205219,76.89965,825.3267)" />
    <path
       sodipodi:type="arc"
       style="fill:#cccccc;fill-opacity:1;stroke:#999999;stroke-width:1;stroke-miterlimit:4;stroke-opacity:1;stroke-dasharray:none;stroke-dashoffset:0"
       id="path3004-7-1-1"
       sodipodi:cx="14.464286"
       sodipodi:cy="146.07143"
       sodipodi:rx="13.035714"
       sodipodi:ry="12.142858"
       d="m 27.5,146.07143 a 13.035714,12.142858 0 1 1 -26.0714283,0 13.035714,12.142858 0 1 1 26.0714283,0 z"
       transform="matrix(0.73780208,0,0,0.79205219,96.18536,824.96955)" />
    <path
       sodipodi:type="arc"
       style="fill:#cccccc;fill-opacity:1;stroke:#999999;stroke-width:1;stroke-miterlimit:4;stroke-opacity:1;stroke-dasharray:none;stroke-dashoffset:0"
       id="path3004-9-5-5"
       sodipodi:cx="14.464286"
       sodipodi:cy="146.07143"
       sodipodi:rx="13.035714"
       sodipodi:ry="12.142858"
       d="m 27.5,146.07143 a 13.035714,12.142858 0 1 1 -26.0714283,0 13.035714,12.142858 0 1 1 26.0714283,0 z"
       transform="matrix(0.73780208,0,0,0.79205219,115.47107,825.32669)" />
    <path
       sodipodi:type="arc"
       style="fill:#cccccc;fill-opacity:1;stroke:#999999;stroke-width:1;stroke-miterlimit:4;stroke-opacity:1;stroke-dasharray:none;stroke-dashoffset:0"
       id="path3004-21-9-6"
       sodipodi:cx="14.464286"
       sodipodi:cy="146.07143"
       sodipodi:rx="13.035714"
       sodipodi:ry="12.142858"
       d="m 27.5,146.07143 a 13.035714,12.142858 0 1 1 -26.0714283,0 13.035714,12.142858 0 1 1 26.0714283,0 z"
       transform="matrix(0.73780208,0,0,0.79205219,134.7568,824.96955)" />
    <path
       sodipodi:type="arc"
       style="fill:#cccccc;fill-opacity:1;stroke:#999999;stroke-width:1;stroke-miterlimit:4;stroke-opacity:1;stroke-dasharray:none;stroke-dashoffset:0"
       id="path3004-70-9-3"
       sodipodi:cx="14.464286"
       sodipodi:cy="146.07143"
       sodipodi:rx="13.035714"
       sodipodi:ry="12.142858"
       d="m 27.5,146.07143 a 13.035714,12.142858 0 1 1 -26.0714283,0 13.035714,12.142858 0 1 1 26.0714283,0 z"
       transform="matrix(0.73780208,0,0,0.79205219,154.39965,825.32669)" />
    <path
       sodipodi:type="arc"
       style="fill:#cccccc;fill-opacity:1;stroke:#999999;stroke-width:1;stroke-miterlimit:4;stroke-opacity:1;stroke-dasharray:none;stroke-dashoffset:0"
       id="path3004-61-9"
       sodipodi:cx="14.464286"
       sodipodi:cy="146.07143"
       sodipodi:rx="13.035714"
       sodipodi:ry="12.142858"
       d="m 27.5,146.07143 a 13.035714,12.142858 0 1 1 -26.0714283,0 13.035714,12.142858 0 1 1 26.0714283,0 z"
       transform="matrix(0.73780208,0,0,0.79205219,-10.386067,808.3267)" />
    <path
       sodipodi:type="arc"
       style="fill:#cccccc;fill-opacity:1;stroke:#999999;stroke-width:1;stroke-miterlimit:4;stroke-opacity:1;stroke-dasharray:none;stroke-dashoffset:0"
       id="path3004-2-2-2"
       sodipodi:cx="14.464286"
       sodipodi:cy="146.07143"
       sodipodi:rx="13.035714"
       sodipodi:ry="12.142858"
       d="m 27.5,146.07143 a 13.035714,12.142858 0 1 1 -26.0714283,0 13.035714,12.142858 0 1 1 26.0714283,0 z"
       transform="matrix(0.73780208,0,0,0.79205219,9.0425039,808.54098)" />
    <path
       sodipodi:type="arc"
       style="fill:#cccccc;fill-opacity:1;stroke:#999999;stroke-width:1;stroke-miterlimit:4;stroke-opacity:1;stroke-dasharray:none;stroke-dashoffset:0"
       id="path3004-1-36-5"
       sodipodi:cx="14.464286"
       sodipodi:cy="146.07143"
       sodipodi:rx="13.035714"
       sodipodi:ry="12.142858"
       d="m 27.5,146.07143 a 13.035714,12.142858 0 1 1 -26.0714283,0 13.035714,12.142858 0 1 1 26.0714283,0 z"
       transform="matrix(0.73780208,0,0,0.79205219,28.328218,808.54098)" />
    <path
       sodipodi:type="arc"
       style="fill:#cccccc;fill-opacity:1;stroke:#999999;stroke-width:1;stroke-miterlimit:4;stroke-opacity:1;stroke-dasharray:none;stroke-dashoffset:0"
       id="path3004-6-0-6"
       sodipodi:cx="14.464286"
       sodipodi:cy="146.07143"
       sodipodi:rx="13.035714"
       sodipodi:ry="12.142858"
       d="m 27.5,146.07143 a 13.035714,12.142858 0 1 1 -26.0714283,0 13.035714,12.142858 0 1 1 26.0714283,0 z"
       transform="matrix(0.73780208,0,0,0.79205219,47.61393,808.18384)" />
    <path
       sodipodi:type="arc"
       style="fill:#cccccc;fill-opacity:1;stroke:#999999;stroke-width:1;stroke-miterlimit:4;stroke-opacity:1;stroke-dasharray:none;stroke-dashoffset:0"
       id="path3004-3-2-1"
       sodipodi:cx="14.464286"
       sodipodi:cy="146.07143"
       sodipodi:rx="13.035714"
       sodipodi:ry="12.142858"
       d="m 27.5,146.07143 a 13.035714,12.142858 0 1 1 -26.0714283,0 13.035714,12.142858 0 1 1 26.0714283,0 z"
       transform="matrix(0.73780208,0,0,0.79205219,67.25679,808.54099)" />
    <path
       sodipodi:type="arc"
       style="fill:#cccccc;fill-opacity:1;stroke:#999999;stroke-width:1;stroke-miterlimit:4;stroke-opacity:1;stroke-dasharray:none;stroke-dashoffset:0"
       id="path3004-7-9-8"
       sodipodi:cx="14.464286"
       sodipodi:cy="146.07143"
       sodipodi:rx="13.035714"
       sodipodi:ry="12.142858"
       d="m 27.5,146.07143 a 13.035714,12.142858 0 1 1 -26.0714283,0 13.035714,12.142858 0 1 1 26.0714283,0 z"
       transform="matrix(0.73780208,0,0,0.79205219,86.5425,808.18384)" />
    <path
       sodipodi:type="arc"
       style="fill:#cccccc;fill-opacity:1;stroke:#999999;stroke-width:1;stroke-miterlimit:4;stroke-opacity:1;stroke-dasharray:none;stroke-dashoffset:0"
       id="path3004-9-3-2"
       sodipodi:cx="14.464286"
       sodipodi:cy="146.07143"
       sodipodi:rx="13.035714"
       sodipodi:ry="12.142858"
       d="m 27.5,146.07143 a 13.035714,12.142858 0 1 1 -26.0714283,0 13.035714,12.142858 0 1 1 26.0714283,0 z"
       transform="matrix(0.73780208,0,0,0.79205219,105.82822,808.54098)" />
    <path
       sodipodi:type="arc"
       style="fill:#cccccc;fill-opacity:1;stroke:#999999;stroke-width:1;stroke-miterlimit:4;stroke-opacity:1;stroke-dasharray:none;stroke-dashoffset:0"
       id="path3004-21-1-0"
       sodipodi:cx="14.464286"
       sodipodi:cy="146.07143"
       sodipodi:rx="13.035714"
       sodipodi:ry="12.142858"
       d="m 27.5,146.07143 a 13.035714,12.142858 0 1 1 -26.0714283,0 13.035714,12.142858 0 1 1 26.0714283,0 z"
       transform="matrix(0.73780208,0,0,0.79205219,125.11394,808.18384)" />
    <path
       sodipodi:type="arc"
       style="fill:#cccccc;fill-opacity:1;stroke:#999999;stroke-width:1;stroke-miterlimit:4;stroke-opacity:1;stroke-dasharray:none;stroke-dashoffset:0"
       id="path3004-70-1-5"
       sodipodi:cx="14.464286"
       sodipodi:cy="146.07143"
       sodipodi:rx="13.035714"
       sodipodi:ry="12.142858"
       d="m 27.5,146.07143 a 13.035714,12.142858 0 1 1 -26.0714283,0 13.035714,12.142858 0 1 1 26.0714283,0 z"
       transform="matrix(0.73780208,0,0,0.79205219,144.75679,808.54098)" />
    <path
       sodipodi:type="arc"
       style="fill:#cccccc;fill-opacity:1;stroke:#999999;stroke-width:1;stroke-miterlimit:4;stroke-opacity:1;stroke-dasharray:none;stroke-dashoffset:0"
       id="path3004-39-2-7"
       sodipodi:cx="14.464286"
       sodipodi:cy="146.07143"
       sodipodi:rx="13.035714"
       sodipodi:ry="12.142858"
       d="m 27.5,146.07143 a 13.035714,12.142858 0 1 1 -26.0714283,0 13.035714,12.142858 0 1 1 26.0714283,0 z"
       transform="matrix(0.73780208,0,0,0.79205219,-0.20749832,791.80884)" />
    <path
       sodipodi:type="arc"
       style="fill:#cccccc;fill-opacity:1;stroke:#999999;stroke-width:1;stroke-miterlimit:4;stroke-opacity:1;stroke-dasharray:none;stroke-dashoffset:0"
       id="path3004-2-0-1-7"
       sodipodi:cx="14.464286"
       sodipodi:cy="146.07143"
       sodipodi:rx="13.035714"
       sodipodi:ry="12.142858"
       d="m 27.5,146.07143 a 13.035714,12.142858 0 1 1 -26.0714283,0 13.035714,12.142858 0 1 1 26.0714283,0 z"
       transform="matrix(0.73780208,0,0,0.79205219,19.221072,792.02312)" />
    <path
       sodipodi:type="arc"
       style="fill:#cccccc;fill-opacity:1;stroke:#999999;stroke-width:1;stroke-miterlimit:4;stroke-opacity:1;stroke-dasharray:none;stroke-dashoffset:0"
       id="path3004-1-0-0-1"
       sodipodi:cx="14.464286"
       sodipodi:cy="146.07143"
       sodipodi:rx="13.035714"
       sodipodi:ry="12.142858"
       d="m 27.5,146.07143 a 13.035714,12.142858 0 1 1 -26.0714283,0 13.035714,12.142858 0 1 1 26.0714283,0 z"
       transform="matrix(0.73780208,0,0,0.79205219,38.506792,792.02312)" />
    <path
       sodipodi:type="arc"
       style="fill:#cccccc;fill-opacity:1;stroke:#999999;stroke-width:1;stroke-miterlimit:4;stroke-opacity:1;stroke-dasharray:none;stroke-dashoffset:0"
       id="path3004-6-6-2-2"
       sodipodi:cx="14.464286"
       sodipodi:cy="146.07143"
       sodipodi:rx="13.035714"
       sodipodi:ry="12.142858"
       d="m 27.5,146.07143 a 13.035714,12.142858 0 1 1 -26.0714283,0 13.035714,12.142858 0 1 1 26.0714283,0 z"
       transform="matrix(0.73780208,0,0,0.79205219,57.792502,791.66598)" />
    <path
       sodipodi:type="arc"
       style="fill:#cccccc;fill-opacity:1;stroke:#999999;stroke-width:1;stroke-miterlimit:4;stroke-opacity:1;stroke-dasharray:none;stroke-dashoffset:0"
       id="path3004-3-5-5-1"
       sodipodi:cx="14.464286"
       sodipodi:cy="146.07143"
       sodipodi:rx="13.035714"
       sodipodi:ry="12.142858"
       d="m 27.5,146.07143 a 13.035714,12.142858 0 1 1 -26.0714283,0 13.035714,12.142858 0 1 1 26.0714283,0 z"
       transform="matrix(0.73780208,0,0,0.79205219,77.435363,792.02313)" />
    <path
       sodipodi:type="arc"
       style="fill:#cccccc;fill-opacity:1;stroke:#999999;stroke-width:1;stroke-miterlimit:4;stroke-opacity:1;stroke-dasharray:none;stroke-dashoffset:0"
       id="path3004-7-1-1-6"
       sodipodi:cx="14.464286"
       sodipodi:cy="146.07143"
       sodipodi:rx="13.035714"
       sodipodi:ry="12.142858"
       d="m 27.5,146.07143 a 13.035714,12.142858 0 1 1 -26.0714283,0 13.035714,12.142858 0 1 1 26.0714283,0 z"
       transform="matrix(0.73780208,0,0,0.79205219,96.721076,791.66598)" />
    <path
       sodipodi:type="arc"
       style="fill:#cccccc;fill-opacity:1;stroke:#999999;stroke-width:1;stroke-miterlimit:4;stroke-opacity:1;stroke-dasharray:none;stroke-dashoffset:0"
       id="path3004-9-5-5-4"
       sodipodi:cx="14.464286"
       sodipodi:cy="146.07143"
       sodipodi:rx="13.035714"
       sodipodi:ry="12.142858"
       d="m 27.5,146.07143 a 13.035714,12.142858 0 1 1 -26.0714283,0 13.035714,12.142858 0 1 1 26.0714283,0 z"
       transform="matrix(0.73780208,0,0,0.79205219,116.00679,792.02312)" />
    <path
       sodipodi:type="arc"
       style="fill:#cccccc;fill-opacity:1;stroke:#999999;stroke-width:1;stroke-miterlimit:4;stroke-opacity:1;stroke-dasharray:none;stroke-dashoffset:0"
       id="path3004-21-9-6-1"
       sodipodi:cx="14.464286"
       sodipodi:cy="146.07143"
       sodipodi:rx="13.035714"
       sodipodi:ry="12.142858"
       d="m 27.5,146.07143 a 13.035714,12.142858 0 1 1 -26.0714283,0 13.035714,12.142858 0 1 1 26.0714283,0 z"
       transform="matrix(0.73780208,0,0,0.79205219,135.29252,791.66598)" />
    <path
       sodipodi:type="arc"
       style="fill:#cccccc;fill-opacity:1;stroke:#999999;stroke-width:1;stroke-miterlimit:4;stroke-opacity:1;stroke-dasharray:none;stroke-dashoffset:0"
       id="path3004-70-9-3-6"
       sodipodi:cx="14.464286"
       sodipodi:cy="146.07143"
       sodipodi:rx="13.035714"
       sodipodi:ry="12.142858"
       d="m 27.5,146.07143 a 13.035714,12.142858 0 1 1 -26.0714283,0 13.035714,12.142858 0 1 1 26.0714283,0 z"
       transform="matrix(0.73780208,0,0,0.79205219,154.93537,792.02312)" />
    <path
       sodipodi:type="arc"
       style="fill:#cccccc;fill-opacity:1;stroke:#999999;stroke-width:1;stroke-miterlimit:4;stroke-opacity:1;stroke-dasharray:none;stroke-dashoffset:0"
       id="path3004-61-9-5"
       sodipodi:cx="14.464286"
       sodipodi:cy="146.07143"
       sodipodi:rx="13.035714"
       sodipodi:ry="12.142858"
       d="m 27.5,146.07143 a 13.035714,12.142858 0 1 1 -26.0714283,0 13.035714,12.142858 0 1 1 26.0714283,0 z"
       transform="matrix(0.73780208,0,0,0.79205219,-9.8503583,775.02313)" />
    <path
       sodipodi:type="arc"
       style="fill:#cccccc;fill-opacity:1;stroke:#999999;stroke-width:1;stroke-miterlimit:4;stroke-opacity:1;stroke-dasharray:none;stroke-dashoffset:0"
       id="path3004-2-2-2-1"
       sodipodi:cx="14.464286"
       sodipodi:cy="146.07143"
       sodipodi:rx="13.035714"
       sodipodi:ry="12.142858"
       d="m 27.5,146.07143 a 13.035714,12.142858 0 1 1 -26.0714283,0 13.035714,12.142858 0 1 1 26.0714283,0 z"
       transform="matrix(0.73780208,0,0,0.79205219,9.5782217,775.23741)" />
    <path
       sodipodi:type="arc"
       style="fill:#cccccc;fill-opacity:1;stroke:#999999;stroke-width:1;stroke-miterlimit:4;stroke-opacity:1;stroke-dasharray:none;stroke-dashoffset:0"
       id="path3004-1-36-5-4"
       sodipodi:cx="14.464286"
       sodipodi:cy="146.07143"
       sodipodi:rx="13.035714"
       sodipodi:ry="12.142858"
       d="m 27.5,146.07143 a 13.035714,12.142858 0 1 1 -26.0714283,0 13.035714,12.142858 0 1 1 26.0714283,0 z"
       transform="matrix(0.73780208,0,0,0.79205219,28.863932,775.23741)" />
    <path
       sodipodi:type="arc"
       style="fill:#cccccc;fill-opacity:1;stroke:#999999;stroke-width:1;stroke-miterlimit:4;stroke-opacity:1;stroke-dasharray:none;stroke-dashoffset:0"
       id="path3004-6-0-6-9"
       sodipodi:cx="14.464286"
       sodipodi:cy="146.07143"
       sodipodi:rx="13.035714"
       sodipodi:ry="12.142858"
       d="m 27.5,146.07143 a 13.035714,12.142858 0 1 1 -26.0714283,0 13.035714,12.142858 0 1 1 26.0714283,0 z"
       transform="matrix(0.73780208,0,0,0.79205219,48.149642,774.88027)" />
    <path
       sodipodi:type="arc"
       style="fill:#cccccc;fill-opacity:1;stroke:#999999;stroke-width:1;stroke-miterlimit:4;stroke-opacity:1;stroke-dasharray:none;stroke-dashoffset:0"
       id="path3004-3-2-1-3"
       sodipodi:cx="14.464286"
       sodipodi:cy="146.07143"
       sodipodi:rx="13.035714"
       sodipodi:ry="12.142858"
       d="m 27.5,146.07143 a 13.035714,12.142858 0 1 1 -26.0714283,0 13.035714,12.142858 0 1 1 26.0714283,0 z"
       transform="matrix(0.73780208,0,0,0.79205219,67.792503,775.23742)" />
    <path
       sodipodi:type="arc"
       style="fill:#cccccc;fill-opacity:1;stroke:#999999;stroke-width:1;stroke-miterlimit:4;stroke-opacity:1;stroke-dasharray:none;stroke-dashoffset:0"
       id="path3004-7-9-8-6"
       sodipodi:cx="14.464286"
       sodipodi:cy="146.07143"
       sodipodi:rx="13.035714"
       sodipodi:ry="12.142858"
       d="m 27.5,146.07143 a 13.035714,12.142858 0 1 1 -26.0714283,0 13.035714,12.142858 0 1 1 26.0714283,0 z"
       transform="matrix(0.73780208,0,0,0.79205219,87.078213,774.88027)" />
    <path
       sodipodi:type="arc"
       style="fill:#cccccc;fill-opacity:1;stroke:#999999;stroke-width:1;stroke-miterlimit:4;stroke-opacity:1;stroke-dasharray:none;stroke-dashoffset:0"
       id="path3004-9-3-2-2"
       sodipodi:cx="14.464286"
       sodipodi:cy="146.07143"
       sodipodi:rx="13.035714"
       sodipodi:ry="12.142858"
       d="m 27.5,146.07143 a 13.035714,12.142858 0 1 1 -26.0714283,0 13.035714,12.142858 0 1 1 26.0714283,0 z"
       transform="matrix(0.73780208,0,0,0.79205219,106.36394,775.23741)" />
    <path
       sodipodi:type="arc"
       style="fill:#cccccc;fill-opacity:1;stroke:#999999;stroke-width:1;stroke-miterlimit:4;stroke-opacity:1;stroke-dasharray:none;stroke-dashoffset:0"
       id="path3004-21-1-0-7"
       sodipodi:cx="14.464286"
       sodipodi:cy="146.07143"
       sodipodi:rx="13.035714"
       sodipodi:ry="12.142858"
       d="m 27.5,146.07143 a 13.035714,12.142858 0 1 1 -26.0714283,0 13.035714,12.142858 0 1 1 26.0714283,0 z"
       transform="matrix(0.73780208,0,0,0.79205219,125.64966,774.88027)" />
    <path
       sodipodi:type="arc"
       style="fill:#cccccc;fill-opacity:1;stroke:#999999;stroke-width:1;stroke-miterlimit:4;stroke-opacity:1;stroke-dasharray:none;stroke-dashoffset:0"
       id="path3004-70-1-5-1"
       sodipodi:cx="14.464286"
       sodipodi:cy="146.07143"
       sodipodi:rx="13.035714"
       sodipodi:ry="12.142858"
       d="m 27.5,146.07143 a 13.035714,12.142858 0 1 1 -26.0714283,0 13.035714,12.142858 0 1 1 26.0714283,0 z"
       transform="matrix(0.73780208,0,0,0.79205219,145.29251,775.23741)" />
  </g>
</svg>
