<?xml version="1.0" encoding="UTF-8" standalone="no"?>
<svg
   xmlns:ooo="http://xml.openoffice.org/svg/export"
   xmlns:dc="http://purl.org/dc/elements/1.1/"
   xmlns:cc="http://creativecommons.org/ns#"
   xmlns:rdf="http://www.w3.org/1999/02/22-rdf-syntax-ns#"
   xmlns:svg="http://www.w3.org/2000/svg"
   xmlns="http://www.w3.org/2000/svg"
   xmlns:sodipodi="http://sodipodi.sourceforge.net/DTD/sodipodi-0.dtd"
   xmlns:inkscape="http://www.inkscape.org/namespaces/inkscape"
   version="1.2"
   width="408.22482"
   height="231.67715"
   viewBox="0 0 11521.011 6538.4443"
   preserveAspectRatio="xMidYMid"
   clip-path="url(#presentation_clip_path)"
   xml:space="preserve"
   id="svg2"
   inkscape:version="0.48.3.1 r9886"
   sodipodi:docname="3_1.44.svg"
   style="fill-rule:evenodd;stroke-width:28.22200012;stroke-linejoin:round"><metadata
   id="metadata297"><rdf:RDF><cc:Work
       rdf:about=""><dc:format>image/svg+xml</dc:format><dc:type
         rdf:resource="http://purl.org/dc/dcmitype/StillImage" /></cc:Work></rdf:RDF></metadata><sodipodi:namedview
   pagecolor="#ffffff"
   bordercolor="#666666"
   borderopacity="1"
   objecttolerance="10"
   gridtolerance="10"
   guidetolerance="10"
   inkscape:pageopacity="0"
   inkscape:pageshadow="2"
   inkscape:window-width="640"
   inkscape:window-height="480"
   id="namedview295"
   showgrid="false"
   fit-margin-top="10"
   fit-margin-left="10"
   fit-margin-right="10"
   fit-margin-bottom="10"
   inkscape:zoom="0.22425739"
   inkscape:cx="279.26122"
   inkscape:cy="-195.90156"
   inkscape:window-x="0"
   inkscape:window-y="0"
   inkscape:window-maximized="0"
   inkscape:current-layer="svg2" />
 <defs
   class="ClipPathGroup"
   id="defs4">
  <clipPath
   id="presentation_clip_path"
   clipPathUnits="userSpaceOnUse">
   <rect
   x="0"
   y="0"
   width="21000"
   height="29700"
   id="rect7" />
  </clipPath>
 </defs>
 <defs
   class="TextShapeIndex"
   id="defs9">
  <g
   ooo:slide="id1"
   ooo:id-list="id3 id4 id5 id6 id7 id8 id9 id10 id11 id12 id13 id14 id15 id16 id17 id18 id19 id20 id21 id22 id23 id24 id25 id26 id27 id28 id29 id30 id31"
   id="g11" />
 </defs>
 <defs
   class="EmbeddedBulletChars"
   id="defs13">
  <g
   id="bullet-char-template(57356)"
   transform="scale(4.8828125e-4,-4.8828125e-4)">
   <path
   d="M 580,1141 1163,571 580,0 -4,571 580,1141 z"
   id="path16"
   inkscape:connector-curvature="0" />
  </g>
  <g
   id="bullet-char-template(57354)"
   transform="scale(4.8828125e-4,-4.8828125e-4)">
   <path
   d="m 8,1128 1129,0 L 1137,0 8,0 8,1128 z"
   id="path19"
   inkscape:connector-curvature="0" />
  </g>
  <g
   id="bullet-char-template(10146)"
   transform="scale(4.8828125e-4,-4.8828125e-4)">
   <path
   d="M 174,0 602,739 174,1481 1456,739 174,0 z m 1184,739 -1049,607 350,-607 699,0 z"
   id="path22"
   inkscape:connector-curvature="0" />
  </g>
  <g
   id="bullet-char-template(10132)"
   transform="scale(4.8828125e-4,-4.8828125e-4)">
   <path
   d="M 2015,739 1276,0 717,0 l 543,543 -1086,0 0,393 1086,0 -543,545 557,0 741,-742 z"
   id="path25"
   inkscape:connector-curvature="0" />
  </g>
  <g
   id="bullet-char-template(10007)"
   transform="scale(4.8828125e-4,-4.8828125e-4)">
   <path
   d="m 0,-2 c -7,16 -16,29 -25,39 l 381,530 c -94,256 -141,385 -141,387 0,25 13,38 40,38 9,0 21,-2 34,-5 21,4 42,12 65,25 l 27,-13 111,-251 280,301 64,-25 24,25 c 21,-10 41,-24 62,-43 C 886,937 835,863 770,784 769,783 710,716 594,584 L 774,223 c 0,-27 -21,-55 -63,-84 l 16,-20 C 717,90 699,76 672,76 641,76 570,178 457,381 L 164,-76 c -22,-34 -53,-51 -92,-51 -42,0 -63,17 -64,51 -7,9 -10,24 -10,44 0,9 1,19 2,30 z"
   id="path28"
   inkscape:connector-curvature="0" />
  </g>
  <g
   id="bullet-char-template(10004)"
   transform="scale(4.8828125e-4,-4.8828125e-4)">
   <path
   d="M 285,-33 C 182,-33 111,30 74,156 52,228 41,333 41,471 c 0,78 14,145 41,201 34,71 87,106 158,106 53,0 88,-31 106,-94 l 23,-176 c 8,-64 28,-97 59,-98 l 735,706 c 11,11 33,17 66,17 42,0 63,-15 63,-46 l 0,-122 c 0,-36 -10,-64 -30,-84 L 442,47 C 390,-6 338,-33 285,-33 z"
   id="path31"
   inkscape:connector-curvature="0" />
  </g>
  <g
   id="bullet-char-template(9679)"
   transform="scale(4.8828125e-4,-4.8828125e-4)">
   <path
   d="M 813,0 C 632,0 489,54 383,161 276,268 223,411 223,592 c 0,181 53,324 160,431 106,107 249,161 430,161 179,0 323,-54 432,-161 108,-107 162,-251 162,-431 0,-180 -54,-324 -162,-431 C 1136,54 992,0 813,0 z"
   id="path34"
   inkscape:connector-curvature="0" />
  </g>
  <g
   id="bullet-char-template(8226)"
   transform="scale(4.8828125e-4,-4.8828125e-4)">
   <path
   d="m 346,457 c -73,0 -137,26 -191,78 -54,51 -81,114 -81,188 0,73 27,136 81,188 54,52 118,78 191,78 73,0 134,-26 185,-79 51,-51 77,-114 77,-187 0,-75 -25,-137 -76,-188 -50,-52 -112,-78 -186,-78 z"
   id="path37"
   inkscape:connector-curvature="0" />
  </g>
  <g
   id="bullet-char-template(8211)"
   transform="scale(4.8828125e-4,-4.8828125e-4)">
   <path
   d="m -4,459 1139,0 0,147 -1139,0 0,-147 z"
   id="path40"
   inkscape:connector-curvature="0" />
  </g>
 </defs>
 <defs
   class="TextEmbeddedBitmaps"
   id="defs42" />
 <g
   id="g44"
   transform="translate(-2618.6277,-2782.7778)">
  <g
   id="id2"
   class="Master_Slide">
   <g
   id="bg-id2"
   class="Background" />
   <g
   id="bo-id2"
   class="BackgroundObjects" />
  </g>
 </g>
 <g
   class="SlideGroup"
   id="g49"
   transform="translate(-2618.6277,-2782.7778)">
  <g
   id="g51">
   <g
   id="id1"
   class="Slide"
   clip-path="url(#presentation_clip_path)">
    <g
   class="Page"
   id="g54">
     <g
   class="com.sun.star.drawing.TextShape"
   id="g56">
      <g
   id="id3">
       <text
   class="TextShape"
   id="text59"><tspan
     class="TextParagraph"
     font-size="635px"
     font-weight="400"
     id="tspan61"
     style="font-size:635px;font-weight:400;font-family:'Arial, sans-serif'"><tspan
       class="TextPosition"
       x="4209"
       y="6801"
       id="tspan63"><tspan
         id="tspan65"
         style="fill:#000000;stroke:none">N</tspan></tspan></tspan></text>

      </g>
     </g>
     <g
   class="com.sun.star.drawing.TextShape"
   id="g67">
      <g
   id="id4">
       <text
   class="TextShape"
   id="text70"><tspan
     class="TextParagraph"
     font-size="635px"
     font-weight="400"
     id="tspan72"
     style="font-size:635px;font-weight:400;font-family:'Arial, sans-serif'"><tspan
       class="TextPosition"
       x="2850"
       y="6901"
       id="tspan74"><tspan
         id="tspan76"
         style="fill:#000000;stroke:none">H</tspan></tspan></tspan></text>

      </g>
     </g>
     <g
   class="com.sun.star.drawing.TextShape"
   id="g78">
      <g
   id="id5">
       <text
   class="TextShape"
   id="text81"><tspan
     class="TextParagraph"
     font-size="635px"
     font-weight="400"
     id="tspan83"
     style="font-size:635px;font-weight:400;font-family:'Arial, sans-serif'"><tspan
       class="TextPosition"
       x="4250"
       y="8139"
       id="tspan85"><tspan
         id="tspan87"
         style="fill:#000000;stroke:none">H</tspan></tspan></tspan></text>

      </g>
     </g>
     <g
   class="com.sun.star.drawing.TextShape"
   id="g89">
      <g
   id="id6">
       <text
   class="TextShape"
   id="text92"><tspan
     class="TextParagraph"
     font-size="635px"
     font-weight="400"
     id="tspan94"
     style="font-size:635px;font-weight:400;font-family:'Arial, sans-serif'"><tspan
       class="TextPosition"
       x="12150"
       y="6601"
       id="tspan96"><tspan
         id="tspan98"
         style="fill:#000000;stroke:none">N</tspan></tspan></tspan></text>

      </g>
     </g>
     <g
   class="com.sun.star.drawing.TextShape"
   id="g100">
      <g
   id="id7">
       <text
   class="TextShape"
   id="text103"><tspan
     class="TextParagraph"
     font-size="635px"
     font-weight="400"
     id="tspan105"
     style="font-size:635px;font-weight:400;font-family:'Arial, sans-serif'"><tspan
       class="TextPosition"
       x="12150"
       y="7939"
       id="tspan107"><tspan
         id="tspan109"
         style="fill:#000000;stroke:none">H</tspan></tspan></tspan></text>

      </g>
     </g>
     <g
   class="com.sun.star.drawing.TextShape"
   id="g111">
      <g
   id="id8">
       <text
   class="TextShape"
   id="text114"><tspan
     class="TextParagraph"
     font-size="635px"
     font-weight="400"
     id="tspan116"
     style="font-size:635px;font-weight:400;font-family:'Arial, sans-serif'"><tspan
       class="TextPosition"
       x="13450"
       y="6601"
       id="tspan118"><tspan
         id="tspan120"
         style="fill:#000000;stroke:none">H</tspan></tspan></tspan></text>

      </g>
     </g>
     <g
   class="com.sun.star.drawing.TextShape"
   id="g122">
      <g
   id="id9">
       <text
   class="TextShape"
   id="text125"><tspan
     class="TextParagraph"
     font-size="635px"
     font-weight="400"
     id="tspan127"
     style="font-size:635px;font-weight:400;font-family:'Arial, sans-serif'"><tspan
       class="TextPosition"
       x="6291"
       y="5501"
       id="tspan129"><tspan
         id="tspan131"
         style="fill:#000000;stroke:none">C</tspan></tspan></tspan></text>

      </g>
     </g>
     <g
   class="com.sun.star.drawing.TextShape"
   id="g133">
      <g
   id="id10">
       <text
   class="TextShape"
   id="text136"><tspan
     class="TextParagraph"
     font-size="635px"
     font-weight="400"
     id="tspan138"
     style="font-size:635px;font-weight:400;font-family:'Arial, sans-serif'"><tspan
       class="TextPosition"
       x="8191"
       y="6739"
       id="tspan140"><tspan
         id="tspan142"
         style="fill:#000000;stroke:none">C</tspan></tspan></tspan></text>

      </g>
     </g>
     <g
   class="com.sun.star.drawing.TextShape"
   id="g144">
      <g
   id="id11">
       <text
   class="TextShape"
   id="text147"><tspan
     class="TextParagraph"
     font-size="635px"
     font-weight="400"
     id="tspan149"
     style="font-size:635px;font-weight:400;font-family:'Arial, sans-serif'"><tspan
       class="TextPosition"
       x="10232"
       y="5439"
       id="tspan151"><tspan
         id="tspan153"
         style="fill:#000000;stroke:none">C</tspan></tspan></tspan></text>

      </g>
     </g>
     <g
   class="com.sun.star.drawing.TextShape"
   id="g155">
      <g
   id="id12">
       <text
   class="TextShape"
   id="text158"><tspan
     class="TextParagraph"
     font-size="635px"
     font-weight="400"
     id="tspan160"
     style="font-size:635px;font-weight:400;font-family:'Arial, sans-serif'"><tspan
       class="TextPosition"
       x="6250"
       y="4201"
       id="tspan162"><tspan
         id="tspan164"
         style="fill:#000000;stroke:none">H</tspan></tspan></tspan></text>

      </g>
     </g>
     <g
   class="com.sun.star.drawing.TextShape"
   id="g166">
      <g
   id="id13">
       <text
   class="TextShape"
   id="text169"><tspan
     class="TextParagraph"
     font-size="635px"
     font-weight="400"
     id="tspan171"
     style="font-size:635px;font-weight:400;font-family:'Arial, sans-serif'"><tspan
       class="TextPosition"
       x="8191"
       y="8139"
       id="tspan173"><tspan
         id="tspan175"
         style="fill:#000000;stroke:none">H</tspan></tspan></tspan></text>

      </g>
     </g>
     <g
   class="com.sun.star.drawing.TextShape"
   id="g177">
      <g
   id="id14">
       <text
   class="TextShape"
   id="text180"><tspan
     class="TextParagraph"
     font-size="635px"
     font-weight="400"
     id="tspan182"
     style="font-size:635px;font-weight:400;font-family:'Arial, sans-serif'"><tspan
       class="TextPosition"
       x="10191"
       y="4201"
       id="tspan184"><tspan
         id="tspan186"
         style="fill:#000000;stroke:none">H</tspan></tspan></tspan></text>

      </g>
     </g>
     <g
   class="com.sun.star.drawing.LineShape"
   id="g188">
      <g
   id="id15">
       <path
   d="m 3459,6600 600,0"
   id="path191"
   inkscape:connector-curvature="0"
   style="fill:none;stroke:#000000;stroke-width:100" />
      </g>
     </g>
     <g
   class="com.sun.star.drawing.LineShape"
   id="g193">
      <g
   id="id16">
       <path
   d="m 12700,6400 600,0"
   id="path196"
   inkscape:connector-curvature="0"
   style="fill:none;stroke:#000000;stroke-width:100" />
      </g>
     </g>
     <g
   class="com.sun.star.drawing.LineShape"
   id="g198">
      <g
   id="id17">
       <path
   d="m 4459,7600 0,-600"
   id="path201"
   inkscape:connector-curvature="0"
   style="fill:none;stroke:#000000;stroke-width:100" />
      </g>
     </g>
     <g
   class="com.sun.star.drawing.LineShape"
   id="g203">
      <g
   id="id18">
       <path
   d="m 12400,7400 0,-600"
   id="path206"
   inkscape:connector-curvature="0"
   style="fill:none;stroke:#000000;stroke-width:100" />
      </g>
     </g>
     <g
   class="com.sun.star.drawing.LineShape"
   id="g208">
      <g
   id="id19">
       <path
   d="m 6500,4900 0,-600"
   id="path211"
   inkscape:connector-curvature="0"
   style="fill:none;stroke:#000000;stroke-width:100" />
      </g>
     </g>
     <g
   class="com.sun.star.drawing.LineShape"
   id="g213">
      <g
   id="id20">
       <path
   d="m 8400,7500 0,-600"
   id="path216"
   inkscape:connector-curvature="0"
   style="fill:none;stroke:#000000;stroke-width:100" />
      </g>
     </g>
     <g
   class="com.sun.star.drawing.LineShape"
   id="g218">
      <g
   id="id21">
       <path
   d="M 4900,6300 6181,5516"
   id="path221"
   inkscape:connector-curvature="0"
   style="fill:none;stroke:#000000;stroke-width:100" />
      </g>
     </g>
     <g
   class="com.sun.star.drawing.LineShape"
   id="g223">
      <g
   id="id22">
       <path
   d="m 4200,6100 400,0"
   id="path226"
   inkscape:connector-curvature="0"
   style="fill:none;stroke:#000000;stroke-width:100" />
      </g>
     </g>
     <g
   class="com.sun.star.drawing.LineShape"
   id="g228">
      <g
   id="id23">
       <path
   d="m 8800,6200 1281,-784"
   id="path231"
   inkscape:connector-curvature="0"
   style="fill:none;stroke:#000000;stroke-width:100" />
      </g>
     </g>
     <g
   class="com.sun.star.drawing.LineShape"
   id="g233">
      <g
   id="id24">
       <path
   d="m 6719,5600 1281,784"
   id="path236"
   inkscape:connector-curvature="0"
   style="fill:none;stroke:#000000;stroke-width:100" />
      </g>
     </g>
     <g
   class="com.sun.star.drawing.LineShape"
   id="g238">
      <g
   id="id25">
       <path
   d="m 6900,5400 1281,784"
   id="path241"
   inkscape:connector-curvature="0"
   style="fill:none;stroke:#000000;stroke-width:100" />
      </g>
     </g>
     <g
   class="com.sun.star.drawing.LineShape"
   id="g243">
      <g
   id="id26">
       <path
   d="m 10600,5516 1281,784"
   id="path246"
   inkscape:connector-curvature="0"
   style="fill:none;stroke:#000000;stroke-width:100" />
      </g>
     </g>
     <g
   class="com.sun.star.drawing.LineShape"
   id="g248">
      <g
   id="id27">
       <path
   d="m 10800,5316 1281,784"
   id="path251"
   inkscape:connector-curvature="0"
   style="fill:none;stroke:#000000;stroke-width:100" />
      </g>
     </g>
     <g
   class="com.sun.star.drawing.LineShape"
   id="g253">
      <g
   id="id28">
       <path
   d="m 10400,4900 0,-600"
   id="path256"
   inkscape:connector-curvature="0"
   style="fill:none;stroke:#000000;stroke-width:100" />
      </g>
     </g>
     <g
   class="com.sun.star.drawing.CustomShape"
   id="g258">
      <g
   id="id29">
       <path
   d="m 6268,3100 c -334,0 -668,479 -668,959 l 0,3682 c 0,480 334,960 668,960"
   id="path261"
   inkscape:connector-curvature="0"
   style="fill:none;stroke:#000000;stroke-width:70" />
       <path
   d="m 5600,3100 0,0 z"
   id="path263"
   inkscape:connector-curvature="0"
   style="fill:none;stroke:#000000;stroke-width:70" />
       <path
   d="m 9501,8701 0,0 z"
   id="path265"
   inkscape:connector-curvature="0"
   style="fill:none;stroke:#000000;stroke-width:70" />
       <path
   d="m 8832,8701 c 334,0 668,-480 668,-960 l 0,-3682 c 0,-480 -334,-959 -668,-959"
   id="path267"
   inkscape:connector-curvature="0"
   style="fill:none;stroke:#000000;stroke-width:70" />
       <path
   d="m 5600,3100 0,0 z"
   id="path269"
   inkscape:connector-curvature="0"
   style="fill:none;stroke:#000000;stroke-width:70" />
       <path
   d="m 9501,8701 0,0 z"
   id="path271"
   inkscape:connector-curvature="0"
   style="fill:none;stroke:#000000;stroke-width:70" />
      </g>
     </g>
     <g
   class="com.sun.star.drawing.TextShape"
   id="g273">
      <g
   id="id30">
       <text
   class="TextShape"
   id="text276"><tspan
     class="TextParagraph"
     font-size="635px"
     font-weight="400"
     id="tspan278"
     style="font-size:635px;font-weight:400;font-family:'Arial, sans-serif'"><tspan
       class="TextPosition"
       x="9550"
       y="9039"
       id="tspan280"><tspan
         id="tspan282"
         style="fill:#000000;stroke:none">1</tspan></tspan></tspan></text>

      </g>
     </g>
     <g
   class="com.sun.star.drawing.TextShape"
   id="g284">
      <g
   id="id31">
       <text
   class="TextShape"
   id="text287"><tspan
     class="TextParagraph"
     font-size="635px"
     font-weight="400"
     id="tspan289"
     style="font-size:635px;font-weight:400;font-family:'Arial, sans-serif'"><tspan
       class="TextPosition"
       x="12115"
       y="6039"
       id="tspan291"><tspan
         id="tspan293"
         style="fill:#000000;stroke:none">⊕</tspan></tspan></tspan></text>

      </g>
     </g>
    </g>
   </g>
  </g>
 </g>
</svg>